<?xml version="1.0"?>
<svg width="512" height="512" xmlns="http://www.w3.org/2000/svg" xmlns:svg="http://www.w3.org/2000/svg">
 <!--! Font Awesome Pro 6.4.0 by @fontawesome - https://fontawesome.com License - https://fontawesome.com/license (Commercial License) Copyright 2023 Fonticons, Inc. -->
 <g class="layer">
  <title>Layer 1</title>
  <path d="m119.4,44.1c23.3,-3.9 46.8,-1.9 68.6,5.3l49.8,77.5l-75.4,75.4c-1.5,1.5 -2.4,3.6 -2.3,5.8s1,4.2 2.6,5.7l112,104c2.9,2.7 7.4,2.9 10.5,0.3s3.8,-7 1.7,-10.4l-60.4,-98.1l90.7,-75.6c2.6,-2.1 3.5,-5.7 2.4,-8.8l-22.8,-63.4c28.5,-16.7 62.4,-23.2 95.7,-17.6c69,11.4 119.5,71 119.5,140.9l0,5.8c0,41.5 -17.2,81.2 -47.6,109.5l-180.7,168.7c-7.5,7 -17.4,10.9 -27.7,10.9s-20.2,-3.9 -27.7,-10.9l-180.7,-168.7c-30.4,-28.3 -47.6,-68 -47.6,-109.5l0,-5.8c0,-69.9 50.5,-129.5 119.4,-141z" fill="#0000ff" id="svg_1"/>
 </g>
</svg>