<?xml version="1.0"?>
<svg width="512" height="512" xmlns="http://www.w3.org/2000/svg" xmlns:svg="http://www.w3.org/2000/svg">
 <!--! Font Awesome Pro 6.4.0 by @fontawesome - https://fontawesome.com License - https://fontawesome.com/license (Commercial License) Copyright 2023 Fonticons, Inc. -->
 <g class="layer">
  <title>Layer 1</title>
  <path d="m47.6,300.4l180.7,168.7c7.5,7 17.4,10.9 27.7,10.9s20.2,-3.9 27.7,-10.9l180.7,-168.7c30.4,-28.3 47.6,-68 47.6,-109.5l0,-5.8c0,-69.9 -50.5,-129.5 -119.4,-141c-45.6,-7.6 -92,7.3 -124.6,39.9l-12,12l-12,-12c-32.6,-32.6 -79,-47.5 -124.6,-39.9c-68.9,11.5 -119.4,71.1 -119.4,141l0,5.8c0,41.5 17.2,81.2 47.6,109.5z" fill="#ff0000" id="svg_1"/>
 </g>
</svg>